<svg width="9" height="6" viewBox="0 0 9 6" fill="none" xmlns="http://www.w3.org/2000/svg">
<path d="M7.86697 0.825915L7.86694 0.825941L4.48288 4.15883L1.09707 0.825915C0.954756 0.685828 0.72535 0.685828 0.58304 0.825915L0.688267 0.932812L0.58304 0.825915L0.456254 0.950719C0.312637 1.09209 0.312629 1.32194 0.456229 1.46332C0.456237 1.46333 0.456246 1.46333 0.456254 1.46334L4.22409 5.17406L4.22411 5.17408C4.36642 5.31417 4.59583 5.31417 4.73814 5.17408L4.73816 5.17406L8.50486 1.46444C8.5051 1.46422 8.50533 1.46399 8.50556 1.46377C8.65157 1.32231 8.65139 1.09208 8.50778 0.950719L8.38099 0.825914C8.23868 0.685828 8.00928 0.685828 7.86697 0.825915Z" fill="#192230" stroke="#192230" stroke-width="0.3"/>
</svg>
