<svg xmlns="http://www.w3.org/2000/svg">



	<symbol id="play">
		<path
			d="M12.5 7.13397C13.1667 7.51888 13.1667 8.48112 12.5 8.86602L2 14.9282C1.33333 15.3131 0.499999 14.832 0.499999 14.0622L0.5 1.93782C0.5 1.16802 1.33333 0.686896 2 1.0718L12.5 7.13397Z"
			fill="currentColor" />

	</symbol>
	<symbol id="checkmark">
		<path fill-rule="evenodd" clip-rule="evenodd"
			d="M0.25 10C0.25 4.615 4.615 0.25 10 0.25C15.385 0.25 19.75 4.615 19.75 10C19.75 15.385 15.385 19.75 10 19.75C4.615 19.75 0.25 15.385 0.25 10ZM13.61 8.186C13.67 8.10605 13.7134 8.01492 13.7377 7.91795C13.762 7.82098 13.7666 7.72014 13.7514 7.62135C13.7361 7.52257 13.7012 7.42782 13.6489 7.3427C13.5965 7.25757 13.5276 7.18378 13.4463 7.12565C13.3649 7.06753 13.2728 7.02624 13.1753 7.00423C13.0778 6.98221 12.9769 6.97991 12.8785 6.99746C12.7801 7.01501 12.6862 7.05205 12.6023 7.10641C12.5184 7.16077 12.4462 7.23135 12.39 7.314L9.154 11.844L7.53 10.22C7.38783 10.0875 7.19978 10.0154 7.00548 10.0188C6.81118 10.0223 6.62579 10.101 6.48838 10.2384C6.35097 10.3758 6.27225 10.5612 6.26882 10.7555C6.2654 10.9498 6.33752 11.1378 6.47 11.28L8.72 13.53C8.79699 13.6069 8.8898 13.6662 8.99199 13.7036C9.09418 13.7411 9.20329 13.7559 9.31176 13.7469C9.42023 13.738 9.52546 13.7055 9.62013 13.6519C9.7148 13.5982 9.79665 13.5245 9.86 13.436L13.61 8.186Z"
			fill="currentColor" />


	</symbol>
	<symbol id="security">
		<path fill-rule="evenodd" clip-rule="evenodd"
			d="M10.516 1.17007C10.3767 1.03798 10.192 0.964355 10 0.964355C9.80802 0.964355 9.62334 1.03798 9.48401 1.17007C7.36128 3.18595 4.53413 4.2914 1.60701 4.25007C1.44754 4.248 1.29157 4.29681 1.16173 4.38942C1.0319 4.48203 0.934963 4.61362 0.885007 4.76507C0.46298 6.05124 0.248625 7.39644 0.250007 8.75007C0.250007 14.6921 4.31401 19.6831 9.81301 21.0981C9.93567 21.1297 10.0643 21.1297 10.187 21.0981C15.686 19.6831 19.75 14.6921 19.75 8.75007C19.75 7.36007 19.527 6.02007 19.115 4.76507C19.0652 4.61343 18.9684 4.48163 18.8385 4.38883C18.7087 4.29603 18.5526 4.24707 18.393 4.24907L18.25 4.25007C15.254 4.25007 12.533 3.08007 10.516 1.17007ZM13.61 9.18607C13.67 9.10612 13.7134 9.01499 13.7377 8.91802C13.762 8.82105 13.7666 8.72021 13.7514 8.62143C13.7361 8.52264 13.7013 8.4279 13.6489 8.34277C13.5965 8.25764 13.5276 8.18385 13.4463 8.12572C13.3649 8.0676 13.2728 8.02631 13.1753 8.0043C13.0778 7.98229 12.9769 7.97999 12.8785 7.99753C12.7801 8.01508 12.6862 8.05212 12.6023 8.10648C12.5184 8.16084 12.4462 8.23142 12.39 8.31407L9.15401 12.8441L7.53001 11.2201C7.38783 11.0876 7.19979 11.0155 7.00548 11.0189C6.81118 11.0223 6.6258 11.101 6.48839 11.2385C6.35097 11.3759 6.27226 11.5612 6.26883 11.7556C6.2654 11.9499 6.33753 12.1379 6.47001 12.2801L8.72001 14.5301C8.797 14.607 8.88981 14.6663 8.99199 14.7037C9.09418 14.7412 9.2033 14.7559 9.31177 14.747C9.42024 14.7381 9.52546 14.7056 9.62014 14.6519C9.71481 14.5982 9.79666 14.5246 9.86001 14.4361L13.61 9.18607Z"
			fill="currentColor" />


	</symbol>
	<symbol id="opportunities_icon_01">
		<path
			d="M8.25 6.75H20.25M8.25 12H20.25M8.25 17.25H20.25M3.75 6.75H3.7575V6.7575H3.75V6.75ZM4.125 6.75C4.125 6.95711 3.95711 7.125 3.75 7.125C3.54289 7.125 3.375 6.95711 3.375 6.75C3.375 6.54289 3.54289 6.375 3.75 6.375C3.95711 6.375 4.125 6.54289 4.125 6.75ZM3.75 12H3.7575V12.0075H3.75V12ZM4.125 12C4.125 12.2071 3.95711 12.375 3.75 12.375C3.54289 12.375 3.375 12.2071 3.375 12C3.375 11.7929 3.54289 11.625 3.75 11.625C3.95711 11.625 4.125 11.7929 4.125 12ZM3.75 17.25H3.7575V17.2575H3.75V17.25ZM4.125 17.25C4.125 17.4571 3.95711 17.625 3.75 17.625C3.54289 17.625 3.375 17.4571 3.375 17.25C3.375 17.0429 3.54289 16.875 3.75 16.875C3.95711 16.875 4.125 17.0429 4.125 17.25Z"
			stroke="currentColor" stroke-width="1.5" stroke-linecap="round" stroke-linejoin="round" />



	</symbol>
	<symbol id="opportunities_icon_02">
		<path
			d="M6.42857 9.75L2.25 12L6.42857 14.25M6.42857 9.75L12 12.75L17.5714 9.75M6.42857 9.75L2.25 7.5L12 2.25L21.75 7.5L17.5714 9.75M17.5714 9.75L21.75 12L17.5714 14.25M17.5714 14.25L21.75 16.5L12 21.75L2.25 16.5L6.42857 14.25M17.5714 14.25L12 17.25L6.42857 14.25"
			stroke="currentColor" stroke-width="1.5" stroke-linecap="round" stroke-linejoin="round" />




	</symbol>
	<symbol id="opportunities_icon_03">
		<path
			d="M16.9999 15.7191C17.2474 15.7396 17.4978 15.75 17.7506 15.75C18.7989 15.75 19.8054 15.5708 20.741 15.2413C20.7473 15.1617 20.7506 15.0812 20.7506 15C20.7506 13.3431 19.4074 12 17.7506 12C17.123 12 16.5403 12.1927 16.0587 12.5222M16.9999 15.7191C17 15.7294 17 15.7397 17 15.75C17 15.975 16.9876 16.1971 16.9635 16.4156C15.2067 17.4237 13.1707 18 11 18C8.82933 18 6.79327 17.4237 5.03651 16.4156C5.01238 16.1971 5 15.975 5 15.75C5 15.7397 5.00003 15.7295 5.00008 15.7192M16.9999 15.7191C16.994 14.5426 16.6494 13.4461 16.0587 12.5222M16.0587 12.5222C14.9928 10.8552 13.1255 9.75 11 9.75C8.87479 9.75 7.00765 10.8549 5.94169 12.5216M5.94169 12.5216C5.46023 12.1925 4.87796 12 4.25073 12C2.59388 12 1.25073 13.3431 1.25073 15C1.25073 15.0812 1.25396 15.1617 1.26029 15.2413C2.19593 15.5708 3.2024 15.75 4.25073 15.75C4.50307 15.75 4.75299 15.7396 5.00008 15.7192M5.94169 12.5216C5.35071 13.4457 5.00598 14.5424 5.00008 15.7192M14 3.75C14 5.40685 12.6569 6.75 11 6.75C9.34315 6.75 8 5.40685 8 3.75C8 2.09315 9.34315 0.75 11 0.75C12.6569 0.75 14 2.09315 14 3.75ZM20 6.75C20 7.99264 18.9926 9 17.75 9C16.5074 9 15.5 7.99264 15.5 6.75C15.5 5.50736 16.5074 4.5 17.75 4.5C18.9926 4.5 20 5.50736 20 6.75ZM6.5 6.75C6.5 7.99264 5.49264 9 4.25 9C3.00736 9 2 7.99264 2 6.75C2 5.50736 3.00736 4.5 4.25 4.5C5.49264 4.5 6.5 5.50736 6.5 6.75Z"
			stroke="currentColor" stroke-width="1.5" stroke-linecap="round" stroke-linejoin="round" />

	</symbol>
	<symbol id="opportunities_icon_04">
		<path
			d="M4.50073 11.9993C4.50073 16.1414 7.8586 19.4993 12.0007 19.4993C16.1429 19.4993 19.5007 16.1414 19.5007 11.9993M4.50073 11.9993C4.50073 7.85712 7.8586 4.49925 12.0007 4.49925C16.1429 4.49926 19.5007 7.85712 19.5007 11.9993M4.50073 11.9993L3.00073 11.9993M19.5007 11.9993L21.0007 11.9993M19.5007 11.9993L12.0007 11.9993M3.54329 15.0774L4.95283 14.5644M19.0482 9.43411L20.4578 8.92108M5.1062 17.785L6.25527 16.8208M17.7459 7.17897L18.895 6.21479M7.50064 19.7943L8.25064 18.4952M15.7506 5.50484L16.5006 4.2058M10.4378 20.8633L10.6983 19.386M13.303 4.61393L13.5635 3.13672M13.5635 20.8633L13.303 19.3861M10.6983 4.61397L10.4378 3.13676M16.5007 19.7941L15.7507 18.4951M7.50068 4.20565L12.0007 11.9993M18.8952 17.7843L17.7461 16.8202M6.25542 7.17835L5.10635 6.21417M20.458 15.0776L19.0485 14.5646M4.95308 9.43426L3.54354 8.92123M12.0007 11.9993L8.25073 18.4944"
			stroke="currentColor" stroke-width="1.5" stroke-linecap="round" stroke-linejoin="round" />


	</symbol>
	<symbol id="opportunities_icon_05">
		<path
			d="M8.8132 14.9038L8 17.75L7.1868 14.9038C6.75968 13.4089 5.59112 12.2403 4.09619 11.8132L1.25 11L4.09619 10.1868C5.59113 9.75968 6.75968 8.59112 7.1868 7.09619L8 4.25L8.8132 7.09619C9.24032 8.59113 10.4089 9.75968 11.9038 10.1868L14.75 11L11.9038 11.8132C10.4089 12.2403 9.24032 13.4089 8.8132 14.9038Z"
			stroke="currentColor" stroke-width="1.5" stroke-linecap="round" stroke-linejoin="round" />
		<path
			d="M17.2589 7.71454L17 8.75L16.7411 7.71454C16.4388 6.50533 15.4947 5.56117 14.2855 5.25887L13.25 5L14.2855 4.74113C15.4947 4.43883 16.4388 3.49467 16.7411 2.28546L17 1.25L17.2589 2.28546C17.5612 3.49467 18.5053 4.43883 19.7145 4.74113L20.75 5L19.7145 5.25887C18.5053 5.56117 17.5612 6.50533 17.2589 7.71454Z"
			stroke="currentColor" stroke-width="1.5" stroke-linecap="round" stroke-linejoin="round" />
		<path
			d="M15.8942 19.5673L15.5 20.75L15.1058 19.5673C14.8818 18.8954 14.3546 18.3682 13.6827 18.1442L12.5 17.75L13.6827 17.3558C14.3546 17.1318 14.8818 16.6046 15.1058 15.9327L15.5 14.75L15.8942 15.9327C16.1182 16.6046 16.6454 17.1318 17.3173 17.3558L18.5 17.75L17.3173 18.1442C16.6454 18.3682 16.1182 18.8954 15.8942 19.5673Z"
			stroke="currentColor" stroke-width="1.5" stroke-linecap="round" stroke-linejoin="round" />
	</symbol>
	<symbol id="opportunities_icon_06">
		<path
			d="M6 6L6 1.5M6 6L1.5 6M6 6L0.750001 0.75M6 12L6 16.5M6 12L1.5 12M6 12L0.75 17.25M12 6H16.5M12 6V1.5M12 6L17.25 0.750001M12 12H16.5M12 12L12 16.5M12 12L17.25 17.25"
			stroke="currentColor" stroke-width="1.5" stroke-linecap="round" stroke-linejoin="round" />

	</symbol>
	<symbol id="social_icon_01">
		<path
			d="M2.74203 13.0954H0.202344V4.91691H2.74203V13.0954ZM1.47082 3.80129C0.658711 3.80129 0 3.12863 0 2.31652C5.81273e-09 1.92644 0.154961 1.55233 0.430793 1.2765C0.706626 1.00066 1.08073 0.845703 1.47082 0.845703C1.86091 0.845703 2.23501 1.00066 2.51085 1.2765C2.78668 1.55233 2.94164 1.92644 2.94164 2.31652C2.94164 3.12863 2.28266 3.80129 1.47082 3.80129ZM12.2473 13.0954H9.71305V9.11418C9.71305 8.16535 9.69391 6.94855 8.39262 6.94855C7.07219 6.94855 6.86984 7.97941 6.86984 9.04582V13.0954H4.33289V4.91691H6.76867V6.03254H6.80422C7.14328 5.38996 7.97152 4.71184 9.20719 4.71184C11.7775 4.71184 12.25 6.40441 12.25 8.60285V13.0954H12.2473Z"
			fill="currentColor" />


	</symbol>
	<symbol id="social_icon_02">
		<path
			d="M13.3522 2.34502C13.1953 1.75447 12.7332 1.28937 12.1465 1.13154C11.083 0.844727 6.81856 0.844727 6.81856 0.844727C6.81856 0.844727 2.55414 0.844727 1.49063 1.13154C0.9039 1.2894 0.441799 1.75447 0.284961 2.34502C0 3.41542 0 5.64871 0 5.64871C0 5.64871 0 7.882 0.284961 8.95241C0.441799 9.54295 0.9039 9.98867 1.49063 10.1465C2.55414 10.4333 6.81856 10.4333 6.81856 10.4333C6.81856 10.4333 11.083 10.4333 12.1465 10.1465C12.7332 9.98867 13.1953 9.54295 13.3522 8.95241C13.6371 7.882 13.6371 5.64871 13.6371 5.64871C13.6371 5.64871 13.6371 3.41542 13.3522 2.34502ZM5.42385 7.67637V3.62105L8.98808 5.64876L5.42385 7.67637Z"
			fill="currentColor" />



	</symbol>



</svg>