<svg width="19" height="21" viewBox="0 0 19 21" fill="none" xmlns="http://www.w3.org/2000/svg">
<path d="M11.75 7.5791V3.8291C11.75 3.23236 11.5129 2.66007 11.091 2.23811C10.669 1.81615 10.0967 1.5791 9.5 1.5791H3.5C2.90326 1.5791 2.33097 1.81615 1.90901 2.23811C1.48705 2.66007 1.25 3.23236 1.25 3.8291V17.3291C1.25 17.9258 1.48705 18.4981 1.90901 18.9201C2.33097 19.342 2.90326 19.5791 3.5 19.5791H9.5C10.0967 19.5791 10.669 19.342 11.091 18.9201C11.5129 18.4981 11.75 17.9258 11.75 17.3291V13.5791M8 7.5791L5 10.5791M5 10.5791L8 13.5791M5 10.5791H17.75" stroke="#192230" stroke-width="1.5" stroke-linecap="round" stroke-linejoin="round"/>
</svg>
