<svg width="157" height="49" viewBox="0 0 157 49" fill="none" xmlns="http://www.w3.org/2000/svg">
<path d="M64.382 27.8189C64.382 29.3075 64.382 31.1682 65.4716 32.6103C65.9642 33.1651 66.5777 33.6037 67.2667 33.8937C67.9556 34.1836 68.7023 34.3174 69.4511 34.285C70.1993 34.3127 70.9445 34.1768 71.6327 33.8872C72.3209 33.5976 72.935 33.1614 73.4306 32.6103C74.5202 31.2148 74.5202 29.4005 74.5202 27.8189V14.8867H78.4049V28.2841C78.4049 31.0287 78.1207 33.0755 76.3205 34.9363C74.3307 37.0761 71.6303 37.6809 69.4037 37.6809C68.1227 37.6991 66.8509 37.4656 65.6631 36.9943C64.4753 36.523 63.3954 35.8232 62.487 34.9363C60.6867 32.9825 60.4025 30.9356 60.4025 28.2841V14.8867H64.4293V27.8189" fill="white"/>
<path d="M110.383 36.286H113.984V14.2827H110.383V36.286ZM112.231 3.25781C112.944 3.2916 113.615 3.59739 114.102 4.11005C114.588 4.62271 114.852 5.30171 114.836 6.00241C114.852 6.70311 114.588 7.38211 114.102 7.89477C113.615 8.40743 112.944 8.71323 112.231 8.74701C111.876 8.73501 111.527 8.65447 111.204 8.51C110.881 8.36553 110.59 8.15997 110.348 7.90506C110.106 7.65016 109.918 7.35091 109.794 7.02444C109.67 6.69797 109.612 6.35067 109.625 6.00241C109.612 5.65415 109.67 5.30685 109.794 4.98038C109.918 4.65391 110.106 4.35467 110.348 4.09976C110.59 3.84486 110.881 3.6393 111.204 3.49483C111.527 3.35036 111.876 3.26982 112.231 3.25781Z" fill="white"/>
<path d="M126.68 17.631V36.285H122.89V17.631H120.521V14.0491H122.89V6.04785H126.68V14.0491H130.47V17.631H126.68Z" fill="white"/>
<path d="M84.5164 36.7512V23.3538C84.5164 20.6092 84.8006 18.5624 86.6009 16.7016C88.5906 14.5618 91.291 13.957 93.5176 13.957C94.7986 13.9388 96.0704 14.1723 97.2582 14.6436C98.446 15.1149 99.5259 15.8146 100.434 16.7016C102.235 18.6554 102.519 20.7022 102.519 23.3538V36.7512H98.6341V23.819C98.6341 22.3304 98.6341 20.4697 97.5444 19.0276C97.0519 18.4728 96.4383 18.0342 95.7494 17.7442C95.0604 17.4543 94.3138 17.3205 93.565 17.3529C92.8167 17.3252 92.0716 17.4611 91.3834 17.7507C90.6952 18.0403 90.0811 18.4765 89.5855 19.0276C88.4959 20.4697 88.4959 22.2374 88.4959 23.819V36.7512H84.5164Z" fill="white"/>
<path d="M137.292 25.6322C137.292 31.1214 141.129 33.866 145.109 33.866C149.088 33.866 152.926 31.0284 152.926 25.6322C152.926 20.143 149.183 17.3984 145.109 17.3984C141.035 17.3984 137.292 20.2361 137.292 25.6322ZM133.312 25.6322C133.312 18.9335 138.287 13.9561 145.156 13.9561C152.026 13.9561 157 18.887 157 25.6322C157 32.3774 151.931 37.2154 145.156 37.2154C138.382 37.3084 133.312 32.3774 133.312 25.6322Z" fill="white"/>
<path d="M39.7474 23.5386L39.7 29.1208C39.6991 29.3964 39.5905 29.6611 39.3965 29.8602C39.2025 30.0593 38.9381 30.1777 38.6578 30.1908C38.3775 30.1777 38.113 30.0593 37.919 29.8602C37.7251 29.6611 37.6164 29.3964 37.6155 29.1208L37.6629 23.5386C37.6629 22.0088 37.044 20.5416 35.9423 19.4598C34.8406 18.378 33.3464 17.7703 31.7884 17.7703C28.8512 17.7703 26.2455 20.2823 26.0087 23.399V23.6316L25.9139 25.7715V25.9111C25.9046 26.9374 25.6895 27.9518 25.2809 28.8965C24.8723 29.8411 24.2782 30.6975 23.5325 31.4167C22.0266 32.8693 19.9947 33.6749 17.8839 33.6564C16.8387 33.6472 15.8056 33.436 14.8435 33.0348C13.8814 32.6336 13.0093 32.0503 12.2768 31.3181C10.7975 29.8394 9.97709 27.8442 9.99594 25.7715C10.0023 25.7722 10.0088 25.7716 10.0149 25.7695C10.021 25.7674 10.0266 25.764 10.0311 25.7595C10.0357 25.7551 10.0391 25.7496 10.0413 25.7436C10.0434 25.7376 10.0441 25.7313 10.0433 25.725H9.99594V20.3753C9.9984 20.2446 10.0271 20.1156 10.0803 19.9958C10.1336 19.8759 10.2103 19.7675 10.3062 19.6768C10.4021 19.5861 10.5153 19.5148 10.6393 19.4671C10.7632 19.4193 10.8956 19.396 11.0287 19.3984C11.1619 19.3947 11.2945 19.4168 11.4189 19.4634C11.5434 19.5101 11.6572 19.5803 11.754 19.6702C11.8508 19.76 11.9286 19.8677 11.983 19.9871C12.0374 20.1065 12.0673 20.2353 12.071 20.366L12.0236 25.7157C12.0236 26.4732 12.1755 27.2233 12.4708 27.9231C12.766 28.623 13.1987 29.2589 13.7442 29.7945C14.2897 30.3301 14.9373 30.755 15.65 31.0449C16.3627 31.3348 17.1266 31.484 17.8981 31.484C18.6695 31.484 19.4334 31.3348 20.1461 31.0449C20.8589 30.755 21.5065 30.3301 22.052 29.7945C22.5975 29.2589 23.0302 28.623 23.3254 27.9231C23.6206 27.2233 23.7726 26.4732 23.7726 25.7157V25.5296L23.8673 23.5758V23.3432C24.161 19.1193 27.6194 15.77 31.741 15.77C33.8578 15.7774 35.885 16.6095 37.3773 18.0836C38.8696 19.5577 39.705 21.5531 39.7 23.6316C39.7474 23.4921 39.7474 23.4921 39.7474 23.5386ZM24.9664 0.000176616C20.0473 -0.0181892 15.2331 1.39618 11.1326 4.06443C7.03206 6.73268 3.82942 10.535 1.92966 14.9905C0.029891 19.446 -0.481686 24.3546 0.459618 29.0956C1.40092 33.8366 3.75283 38.197 7.21793 41.6255C10.683 45.054 15.1057 47.3966 19.9266 48.357C24.7476 49.3174 29.7503 48.8524 34.3022 47.021C38.854 45.1896 42.7506 42.0739 45.4991 38.0679C48.2477 34.062 49.7247 29.3457 49.7435 24.5155V24.4225C49.7561 17.9592 47.154 11.7556 42.5094 7.17584C37.8649 2.59603 31.5581 0.0149662 24.9759 0.000176616H24.9664Z" fill="white"/>
</svg>
