<svg width="115" height="36" viewBox="0 0 115 36" fill="none" xmlns="http://www.w3.org/2000/svg">
<path d="M47.314 20.4098C47.314 21.4907 47.314 22.8418 48.1052 23.8889C48.4629 24.2917 48.9084 24.6102 49.4086 24.8208C49.9089 25.0313 50.451 25.1284 50.9948 25.1049C51.5381 25.125 52.0791 25.0263 52.5789 24.816C53.0786 24.6057 53.5245 24.2891 53.8843 23.8889C54.6755 22.8756 54.6755 21.5582 54.6755 20.4098V11.0195H57.4963V20.7476C57.4963 22.7404 57.2899 24.2267 55.9827 25.5778C54.5379 27.1316 52.5772 27.5707 50.9604 27.5707C50.0302 27.5839 49.1068 27.4144 48.2443 27.0722C47.3818 26.7299 46.5977 26.2218 45.938 25.5778C44.6308 24.1591 44.4244 22.6729 44.4244 20.7476V11.0195H47.3484V20.4098" fill="#192230"/>
<path d="M80.7161 26.5575H83.3304V10.5805H80.7161V26.5575ZM82.0577 2.5752C82.5753 2.59973 83.0628 2.82177 83.4162 3.19402C83.7696 3.56627 83.961 4.0593 83.9496 4.56809C83.961 5.07687 83.7696 5.56991 83.4162 5.94216C83.0628 6.31441 82.5753 6.53645 82.0577 6.56098C81.8001 6.55226 81.5468 6.49378 81.3123 6.38888C81.0778 6.28398 80.8667 6.13472 80.691 5.94963C80.5152 5.76454 80.3784 5.54725 80.2883 5.3102C80.1981 5.07314 80.1565 4.82097 80.1657 4.56809C80.1565 4.31521 80.1981 4.06303 80.2883 3.82598C80.3784 3.58892 80.5152 3.37164 80.691 3.18655C80.8667 3.00146 81.0778 2.8522 81.3123 2.74729C81.5468 2.64239 81.8001 2.58391 82.0577 2.5752Z" fill="#192230"/>
<path d="M92.5495 13.0122V26.5572H89.7975V13.0122H88.0775V10.4114H89.7975V4.60156H92.5495V10.4114H95.3014V13.0122H92.5495Z" fill="#192230"/>
<path d="M61.9338 26.8956V17.1676C61.9338 15.1747 62.1402 13.6885 63.4474 12.3374C64.8922 10.7836 66.853 10.3445 68.4698 10.3445C69.3999 10.3313 70.3234 10.5007 71.1859 10.843C72.0483 11.1852 72.8324 11.6933 73.4921 12.3374C74.7993 13.756 75.0057 15.2423 75.0057 17.1676V26.8956H72.1849V17.5054C72.1849 16.4245 72.1849 15.0734 71.3937 14.0263C71.0361 13.6234 70.5905 13.3049 70.0903 13.0944C69.59 12.8839 69.0479 12.7868 68.5042 12.8102C67.9609 12.7901 67.4198 12.8888 66.9201 13.0991C66.4204 13.3094 65.9745 13.6261 65.6146 14.0263C64.8234 15.0734 64.8234 16.3569 64.8234 17.5054V26.8956H61.9338Z" fill="#192230"/>
<path d="M100.255 18.822C100.255 22.8078 103.041 24.8007 105.931 24.8007C108.821 24.8007 111.607 22.7402 111.607 18.822C111.607 14.8362 108.889 12.8433 105.931 12.8433C102.973 12.8433 100.255 14.9038 100.255 18.822ZM97.3655 18.822C97.3655 13.958 100.977 10.3438 105.965 10.3438C110.953 10.3438 114.565 13.9242 114.565 18.822C114.565 23.7198 110.885 27.2327 105.965 27.2327C101.046 27.3002 97.3655 23.7198 97.3655 18.822Z" fill="#192230"/>
<path d="M29.4265 17.3017L29.3921 21.355C29.3914 21.5551 29.3125 21.7473 29.1717 21.8919C29.0308 22.0365 28.8388 22.1224 28.6353 22.1319C28.4317 22.1224 28.2397 22.0365 28.0989 21.8919C27.958 21.7473 27.8791 21.5551 27.8785 21.355L27.9129 17.3017C27.9129 16.1908 27.4635 15.1255 26.6635 14.34C25.8636 13.5545 24.7786 13.1132 23.6473 13.1132C21.5145 13.1132 19.6226 14.9372 19.4506 17.2003V17.3692L19.3818 18.923V19.0244C19.375 19.7696 19.2188 20.5062 18.9221 21.1921C18.6254 21.878 18.194 22.4999 17.6526 23.0221C16.5591 24.0768 15.0838 24.6618 13.551 24.6484C12.7921 24.6417 12.0419 24.4883 11.3434 24.197C10.6448 23.9057 10.0115 23.4821 9.47968 22.9505C8.40556 21.8767 7.80982 20.428 7.8235 18.923C7.82815 18.9236 7.83287 18.9231 7.83729 18.9216C7.84172 18.92 7.84574 18.9176 7.84905 18.9143C7.85236 18.9111 7.85488 18.9071 7.85641 18.9028C7.85794 18.8984 7.85845 18.8938 7.8579 18.8892H7.8235V15.0048C7.82529 14.9099 7.84611 14.8162 7.88477 14.7292C7.92343 14.6421 7.97917 14.5634 8.04881 14.4976C8.11845 14.4317 8.20062 14.38 8.29063 14.3453C8.38065 14.3106 8.47674 14.2937 8.57341 14.2955C8.6701 14.2928 8.76637 14.3088 8.85674 14.3426C8.94711 14.3765 9.0298 14.4275 9.10008 14.4928C9.17036 14.558 9.22686 14.6362 9.26635 14.7229C9.30583 14.8096 9.32753 14.9031 9.3302 14.998L9.2958 18.8825C9.2958 19.4325 9.40614 19.9772 9.6205 20.4853C9.83486 20.9935 10.1491 21.4552 10.5452 21.8442C10.9412 22.2331 11.4115 22.5416 11.929 22.7521C12.4465 22.9626 13.0012 23.0709 13.5614 23.0709C14.1215 23.0709 14.6762 22.9626 15.1937 22.7521C15.7112 22.5416 16.1815 22.2331 16.5776 21.8442C16.9736 21.4552 17.2878 20.9935 17.5022 20.4853C17.7166 19.9772 17.8269 19.4325 17.8269 18.8825V18.7474L17.8957 17.3287V17.1598C18.109 14.0928 20.6202 11.6608 23.6129 11.6608C25.1499 11.6661 26.6219 12.2704 27.7055 13.3407C28.7891 14.4111 29.3957 15.86 29.3921 17.3692C29.4265 17.2679 29.4265 17.2679 29.4265 17.3017ZM18.6938 0.210089C15.1219 0.196754 11.6263 1.22375 8.64882 3.1612C5.67139 5.09866 3.34591 7.85955 1.96646 11.0948C0.587012 14.33 0.215548 17.8942 0.899043 21.3367C1.58254 24.7792 3.29029 27.9454 5.80635 30.4349C8.32241 32.9243 11.5338 34.6253 15.0343 35.3226C18.5349 36.02 22.1674 35.6824 25.4726 34.3526C28.7778 33.0228 31.6071 30.7604 33.6029 27.8516C35.5986 24.9429 36.6711 21.5183 36.6848 18.011V17.9435C36.6939 13.2504 34.8045 8.7459 31.432 5.42044C28.0595 2.09498 23.4801 0.220828 18.7007 0.210089H18.6938Z" fill="#3AAFA9"/>
</svg>
